<svg viewBox="0 0 473 473" xmlns="http://www.w3.org/2000/svg">
	<path d="M455.568 286.557L439.253 277.137C441.993 263.509 443.379 249.862 443.379 236.5C443.379 222.943 442.015 209.284 439.322 195.822L455.568 186.442C460.6 183.537 464.2 178.846 465.703 173.234C467.206 167.622 466.435 161.76 463.53 156.728L419.099 79.7713C416.194 74.7396 411.503 71.1398 405.891 69.6365C400.278 68.1333 394.417 68.9043 389.384 71.8099L373.125 81.1977C352.586 63.1284 328.414 49.1439 302.683 40.4429V21.7524C302.683 9.75805 292.925 0 280.93 0H192.069C180.075 0 170.317 9.75805 170.317 21.7524V40.4438C144.723 49.1096 120.584 63.1126 99.9695 81.2533L83.6144 71.8099C78.5817 68.9043 72.7197 68.1324 67.1075 69.6365C61.4954 71.1407 56.8052 74.7396 53.8996 79.7713L9.46912 156.728C6.56355 161.76 5.79249 167.622 7.29573 173.234C8.79896 178.846 12.3988 183.537 17.4305 186.442L33.7458 195.862C31.0077 209.49 29.6202 223.137 29.6202 236.5C29.6202 250.055 30.9846 263.715 33.6782 277.177L17.4314 286.557C7.04395 292.555 3.47285 305.884 9.46912 316.272L53.8996 393.229C59.8968 403.615 73.226 407.187 83.6144 401.19L99.8732 391.802C120.413 409.872 144.584 423.856 170.317 432.558V451.248C170.317 463.242 180.075 473 192.069 473H280.93C292.925 473 302.683 463.242 302.683 451.248V432.556C328.278 423.89 352.416 409.887 373.031 391.748L389.385 401.19C399.772 407.187 413.103 403.615 419.1 393.229L463.531 316.272C469.527 305.884 465.956 292.555 455.568 286.557ZM451.506 309.33L407.075 386.285C404.906 390.044 400.085 391.335 396.328 389.165L375.601 377.199C372.967 375.678 369.649 376.049 367.416 378.114C346.226 397.712 320.73 412.5 293.687 420.877C290.78 421.778 288.798 424.466 288.798 427.509V451.248C288.798 455.586 285.269 459.115 280.93 459.115H192.069C187.731 459.115 184.201 455.586 184.201 451.248V427.51C184.201 424.467 182.22 421.779 179.314 420.878C152.104 412.449 126.577 397.68 105.49 378.17C104.175 376.953 102.482 376.324 100.774 376.324C99.5835 376.324 98.3866 376.629 97.3046 377.254L76.6721 389.165C72.9141 391.334 68.0933 390.043 65.9246 386.285L21.4941 309.33C19.3253 305.573 20.6175 300.751 24.3737 298.581L44.9895 286.679C47.622 285.159 48.9595 282.104 48.2903 279.138C45.1144 265.062 43.5048 250.716 43.5048 236.5C43.5048 222.523 45.1385 208.19 48.3616 193.9C49.0299 190.936 47.6923 187.88 45.0607 186.361L24.3737 174.418C22.5539 173.367 21.2525 171.67 20.7082 169.64C20.1648 167.61 20.4435 165.49 21.4941 163.67L65.9246 86.7136C66.9752 84.8938 68.6719 83.5914 70.7027 83.0481C72.7317 82.5038 74.8533 82.7833 76.6731 83.8339L97.3999 95.8006C100.034 97.3223 103.352 96.9502 105.584 94.8851C126.776 75.2866 152.271 60.4996 179.314 52.1216C182.221 51.221 184.202 48.5329 184.202 45.4904V21.7524C184.202 17.414 187.732 13.8845 192.07 13.8845H280.931C285.27 13.8845 288.799 17.414 288.799 21.7524V45.4904C288.799 48.5329 290.781 51.221 293.687 52.1216C320.896 60.5505 346.423 75.319 367.511 94.8296C369.743 96.8956 373.062 97.2668 375.696 95.7459L396.328 83.8339C398.149 82.7833 400.27 82.5038 402.299 83.0481C404.329 83.5923 406.025 84.8938 407.077 86.7136L451.508 163.67C452.558 165.49 452.838 167.61 452.293 169.64C451.749 171.67 450.448 173.367 448.628 174.418L428.012 186.32C425.38 187.84 424.042 190.896 424.711 193.861C427.887 207.936 429.497 222.281 429.497 236.5C429.497 250.477 427.863 264.81 424.64 279.099C423.972 282.064 425.309 285.118 427.941 286.638L448.628 298.581C452.383 300.751 453.675 305.573 451.506 309.33Z" />
	<path d="M236.5 96.2661C159.174 96.2661 96.2661 159.175 96.2661 236.5C96.2661 313.825 159.174 376.734 236.5 376.734C313.826 376.734 376.734 313.825 376.734 236.5C376.734 159.175 313.826 96.2661 236.5 96.2661ZM236.5 362.849C166.831 362.849 110.151 306.169 110.151 236.5C110.151 166.831 166.831 110.151 236.5 110.151C306.169 110.151 362.849 166.831 362.849 236.5C362.849 306.169 306.169 362.849 236.5 362.849Z" />
	<path d="M262.418 199.938H236.5C232.666 199.938 229.558 203.046 229.558 206.88V266.12C229.558 269.954 232.666 273.063 236.5 273.063C240.334 273.063 243.442 269.954 243.442 266.12V250.847H262.418C276.454 250.847 287.873 239.429 287.873 225.392C287.873 211.356 276.454 199.938 262.418 199.938ZM262.418 236.963H243.442V213.822H262.418C268.798 213.822 273.988 219.012 273.988 225.392C273.988 231.773 268.798 236.963 262.418 236.963Z" />
	<path d="M198.569 204.443C197.553 201.733 194.963 199.938 192.069 199.938H184.664C181.771 199.938 179.18 201.732 178.164 204.443L155.949 263.683C154.602 267.273 156.422 271.274 160.012 272.621C163.601 273.968 167.603 272.148 168.95 268.559L172.813 258.253H203.919L207.784 268.558C208.829 271.345 211.474 273.065 214.284 273.065C215.094 273.065 215.918 272.922 216.721 272.621C220.31 271.275 222.13 267.273 220.783 263.683L198.569 204.443ZM178.02 244.368L188.367 216.778L198.713 244.368H178.02Z" />
	<path d="M303.145 199.938C299.311 199.938 296.203 203.046 296.203 206.88V266.12C296.203 269.954 299.311 273.063 303.145 273.063C306.979 273.063 310.088 269.954 310.088 266.12V206.88C310.088 203.046 306.979 199.938 303.145 199.938Z" />
	<path d="M286.162 80.808C290.98 82.3436 295.783 84.1273 300.436 86.1082C301.323 86.4858 302.245 86.6645 303.152 86.6645C305.851 86.6645 308.419 85.0798 309.543 82.4399C311.044 78.9123 309.402 74.8349 305.874 73.3335C300.822 71.1832 295.609 69.2468 290.377 67.5797C286.726 66.4153 282.819 68.4332 281.655 72.0857C280.491 75.7383 282.509 79.6435 286.162 80.808Z" />
	<path d="M92.98 314.627C91.1435 311.262 86.9254 310.021 83.5607 311.858C80.1951 313.694 78.9548 317.912 80.7912 321.277C83.6718 326.557 86.8606 331.751 90.2688 336.714C91.6147 338.674 93.7871 339.727 95.9976 339.727C97.3518 339.727 98.7199 339.332 99.9213 338.507C103.082 336.336 103.885 332.014 101.714 328.854C98.5736 324.28 95.6347 319.493 92.98 314.627Z" />
	<path d="M222.282 399.265C185.082 396.059 149.771 379.938 122.854 353.871C120.099 351.203 115.705 351.274 113.038 354.028C110.371 356.783 110.44 361.178 113.195 363.844C142.399 392.127 180.717 409.619 221.09 413.097C221.293 413.115 221.494 413.123 221.694 413.123C225.258 413.123 228.291 410.394 228.602 406.777C228.931 402.958 226.101 399.594 222.282 399.265Z" />
	<path d="M336.399 90.0525C333.233 87.8892 328.913 88.702 326.75 91.8667C324.587 95.0324 325.4 99.3523 328.564 101.516C360.817 123.558 384.148 156.358 394.259 193.872C395.094 196.969 397.896 199.009 400.958 199.009C401.555 199.009 402.164 198.931 402.768 198.768C406.471 197.771 408.663 193.961 407.665 190.259C396.694 149.55 371.384 113.963 336.399 90.0525Z" />
</svg>
