<svg viewBox="0 0 183 183" xmlns="http://www.w3.org/2000/svg">
	<g clip-path="url(#clip0)">
		<path d="M91.5 7.21144e-05C40.9615 7.21144e-05 0 40.9692 0 91.5001C0 142.039 40.9615 183 91.5 183C142.031 183 183 142.039 183 91.5001C183.004 82.8759 181.789 74.2944 179.393 66.0097C178.944 64.9188 178.091 64.0435 177.012 63.5667C175.933 63.0899 174.711 63.0484 173.602 63.4508C172.493 63.8533 171.583 64.6686 171.06 65.7266C170.538 66.7845 170.445 68.0033 170.8 69.1283H170.785C172.805 76.3187 173.85 83.8293 173.85 91.5001C173.88 102.319 171.763 113.036 167.624 123.032C163.484 133.027 157.403 142.103 149.732 149.732C142.103 157.403 133.028 163.484 123.032 167.624C113.036 171.764 102.319 173.88 91.5 173.85C80.6811 173.88 69.9638 171.764 59.9683 167.624C49.9727 163.484 40.8975 157.403 33.2679 149.732C25.5967 142.103 19.5151 133.028 15.3752 123.032C11.2353 113.037 9.11941 102.319 9.15 91.5001C9.12025 80.6812 11.2365 69.9639 15.3764 59.9683C19.5162 49.9728 25.5973 40.8976 33.2679 33.2679C40.897 25.5967 49.9721 19.5151 59.9678 15.3753C69.9634 11.2354 80.681 9.11948 91.5 9.15007C111.142 9.15007 129.724 15.9821 144.555 28.5176C143.617 30.8967 143.524 33.5252 144.29 35.9648C145.057 38.4043 146.636 40.5075 148.765 41.9233C150.895 43.3392 153.445 43.9823 155.991 43.7453C158.537 43.5083 160.925 42.4055 162.756 40.6209C164.588 38.8363 165.752 36.4777 166.055 33.9386C166.357 31.3996 165.78 28.8334 164.42 26.6682C163.06 24.5031 160.998 22.8697 158.579 22.0407C156.16 21.2117 153.53 21.237 151.127 22.1126C134.551 7.82155 113.386 -0.0274464 91.5 7.21144e-05V7.21144e-05ZM80.52 44.8351L48.495 127.963H68.5487L73.7871 113.872H104.051L98.5684 98.3016H78.6443L91.6067 62.5327L114.665 127.955H134.726L102.709 44.8351H80.52Z" />
	</g>
	<defs>
		<clipPath id="clip0">
			<rect width="183" height="183" fill="white" />
		</clipPath>
	</defs>
</svg>
