<svg viewBox="0 0 483 483" xmlns="http://www.w3.org/2000/svg">
	<path d="M221.81 6.13157C233.734 -0.693799 249.266 -0.724628 261.18 6.13157C321.118 39.9998 381.075 73.8149 441.003 107.704C452.275 114.053 459.814 126.597 459.699 139.585V343.349C459.783 356.875 451.499 369.719 439.607 375.925C379.866 409.606 320.155 443.329 260.424 477.01C248.253 483.969 232.41 483.433 220.619 475.904C202.709 465.521 184.768 455.19 166.856 444.817C163.196 442.635 159.07 440.898 156.485 437.349C158.77 434.27 162.855 433.886 166.174 432.542C173.65 430.164 180.517 426.348 187.385 422.645C189.122 421.457 191.242 421.912 192.907 422.976C208.222 431.757 223.403 440.794 238.77 449.491C242.048 451.384 245.367 448.871 248.169 447.309C306.794 414.176 365.49 381.167 424.105 348.024C426.276 346.979 427.477 344.673 427.301 342.294C427.342 275.077 427.311 207.847 427.321 140.63C427.57 137.931 426.008 135.449 423.567 134.344C364.033 100.817 304.53 67.2379 245.006 33.702C243.975 32.993 242.753 32.6126 241.501 32.6107C240.25 32.6089 239.027 32.9857 237.994 33.6917C178.47 67.2379 118.977 100.848 59.4534 134.373C57.0212 135.48 55.389 137.92 55.6784 140.63C55.6887 207.847 55.6784 275.077 55.6784 342.305C55.5752 343.465 55.8302 344.63 56.4089 345.641C56.9877 346.653 57.8625 347.463 58.9156 347.962C74.7997 356.969 90.7045 365.913 106.599 374.89C115.553 379.71 126.548 382.574 136.413 378.881C145.119 375.758 151.222 366.874 151.056 357.631C151.138 290.805 151.014 223.97 151.117 157.155C150.9 154.188 153.714 151.737 156.598 152.016C164.23 151.965 171.872 151.914 179.505 152.037C182.69 151.965 184.883 155.159 184.489 158.148C184.458 225.396 184.571 292.646 184.437 359.895C184.458 377.817 177.095 397.319 160.517 406.088C140.094 416.668 114.851 414.424 94.6747 404.279C77.2079 395.561 60.5393 385.273 43.3825 375.933C31.4599 369.762 23.2164 356.867 23.3003 343.351V139.585C23.1753 126.328 31.0146 113.556 42.6374 107.3C102.368 73.5906 162.089 39.8559 221.81 6.13157Z" />
	<path d="M273.919 147.281C299.97 145.604 327.859 146.287 351.302 159.121C369.452 168.956 379.515 189.596 379.835 209.761C379.328 212.48 376.485 213.981 373.888 213.794C366.33 213.784 358.77 213.897 351.211 213.743C348.005 213.866 346.141 210.91 345.739 208.075C343.567 198.427 338.305 188.872 329.224 184.218C315.284 177.239 299.121 177.59 283.92 177.735C272.823 178.325 260.89 179.285 251.489 185.811C244.271 190.754 242.079 200.733 244.655 208.769C247.084 214.539 253.744 216.401 259.194 218.117C290.589 226.328 323.858 225.511 354.654 236.317C367.404 240.722 379.876 249.286 384.24 262.635C389.949 280.527 387.446 301.913 374.717 316.276C364.394 328.096 349.36 334.529 334.364 338.023C314.416 342.471 293.714 342.584 273.455 340.609C254.406 338.437 234.582 333.433 219.876 320.453C207.301 309.534 201.159 292.521 201.769 276.101C201.914 273.328 204.675 271.395 207.332 271.622C214.943 271.561 222.555 271.54 230.167 271.633C233.207 271.415 235.461 274.042 235.617 276.908C237.021 286.1 240.476 295.748 248.491 301.198C263.961 311.179 283.372 310.495 301.085 310.774C315.76 310.124 332.234 309.927 344.209 300.227C350.528 294.695 352.4 285.439 350.692 277.477C348.842 270.754 341.81 267.621 335.771 265.573C304.778 255.769 271.138 259.326 240.445 248.24C227.984 243.836 215.935 235.51 211.148 222.709C204.468 204.592 207.529 182.182 221.592 168.303C235.305 154.498 255.099 149.182 273.919 147.279V147.281Z" fill="black" />
</svg>
