<svg viewBox="0 0 449 449" xmlns="http://www.w3.org/2000/svg">
	<path d="M224.5 18.7098C170.498 18.161 118.487 39.0758 79.8982 76.8576C41.3095 114.639 19.3006 166.197 18.7083 220.198C18.9163 262.875 32.6449 304.388 57.9221 338.775C83.1993 373.161 118.724 398.651 159.395 411.585C169.685 413.456 173.426 407.282 173.426 401.856V367.62C116.179 379.781 104.018 340.68 104.018 340.68C100.207 328.406 92.1054 317.913 81.1941 311.121C62.4858 298.773 82.6908 298.961 82.6908 298.961C89.1573 299.825 95.3442 302.142 100.788 305.739C106.231 309.335 110.789 314.118 114.121 319.727C119.927 329.794 129.453 337.18 140.649 340.294C151.846 343.408 163.817 342.001 173.987 336.377C175.033 326.132 179.673 316.588 187.083 309.437C141.435 304.386 93.5416 287.174 93.5416 209.909C93.1334 189.754 100.58 170.231 114.308 155.468C108.056 138.164 108.794 119.105 116.366 102.336C116.366 102.336 133.765 96.9106 172.491 122.915C206.201 113.932 241.676 113.932 275.387 122.915C314.674 96.9106 331.512 102.336 331.512 102.336C339.083 119.105 339.821 138.164 333.57 155.468C347.616 169.96 355.467 189.352 355.458 209.535C355.458 286.987 307.191 304.012 261.917 309.063C266.874 313.876 270.703 319.728 273.129 326.197C275.556 332.667 276.518 339.594 275.948 346.48V401.669C275.948 408.217 279.69 413.456 289.979 411.398C330.534 398.384 365.94 372.888 391.139 338.55C416.338 304.212 430.041 262.79 430.292 220.198C429.699 166.197 407.69 114.639 369.102 76.8576C330.513 39.0758 278.502 18.161 224.5 18.7098Z" />
</svg>
