<svg viewBox="0 0 467 467" xmlns="http://www.w3.org/2000/svg">
	<path d="M63.5198 355.916L46.3965 346.015L237.368 15.2549L254.492 25.1553L63.5198 355.916Z" fill="black" />
	<path d="M42.459 319.584H424.434V339.385H42.459V319.584Z" />
	<path d="M241.073 441.035L50.0234 330.73L59.9238 313.606L250.974 423.912L241.073 441.035ZM407.045 153.519L215.98 43.2288L225.88 26.1055L416.93 136.411L407.045 153.519Z" />
	<path d="M59.9702 153.457L50.0698 136.333L241.291 25.9968L251.191 43.1202L59.9702 153.457Z" fill="black" />
	<path d="M403.528 355.916L212.525 25.1248L229.648 15.2244L420.651 346.016L403.528 355.916ZM57.6055 123.195H77.4063V343.806H57.6055V123.195ZM389.611 123.195H409.412V343.806H389.611V123.195Z" />
	<path d="M237.711 432.645L229.071 417.67L395.245 321.732L403.885 336.707L237.711 432.645Z" fill="black" />
	<path d="M435.64 350.25C430.108 359.803 421.016 366.774 410.354 369.636C399.693 372.498 388.332 371.018 378.759 365.52C369.206 359.989 362.235 350.896 359.373 340.235C356.51 329.574 357.99 318.212 363.488 308.64C369.02 299.087 378.112 292.116 388.774 289.253C399.435 286.391 410.796 287.871 420.369 293.369C440.403 304.935 447.206 330.34 435.624 350.25H435.64ZM103.4 158.375C97.8687 167.928 88.7763 174.899 78.1148 177.761C67.4534 180.624 56.0922 179.144 46.5197 173.646C36.9626 168.114 29.9884 159.019 27.1259 148.354C24.2634 137.688 25.746 126.323 31.2488 116.75C36.7805 107.197 45.8729 100.225 56.5343 97.3631C67.1957 94.5008 78.557 95.9807 88.1294 101.479C97.6824 107.01 104.654 116.103 107.516 126.764C110.378 137.426 108.898 148.787 103.4 158.359V158.375ZM31.3734 350.25C25.8755 340.677 24.3956 329.316 27.2579 318.654C30.1202 307.993 37.0913 298.901 46.6443 293.369C56.2167 287.871 67.578 286.391 78.2394 289.253C88.9008 292.116 97.9932 299.087 103.525 308.64C109.023 318.212 110.503 329.574 107.64 340.235C104.778 350.896 97.8069 359.989 88.254 365.52C68.2197 376.962 42.7993 370.19 31.3734 350.265V350.25ZM363.613 158.39C358.115 148.818 356.635 137.457 359.497 126.795C362.36 116.134 369.331 107.041 378.884 101.51C388.456 96.0119 399.817 94.532 410.479 97.3943C421.14 100.257 430.233 107.228 435.764 116.781C441.262 126.353 442.742 137.714 439.88 148.376C437.017 159.037 430.046 168.13 420.493 173.661C410.921 179.159 399.56 180.639 388.898 177.777C378.237 174.914 369.144 167.943 363.613 158.39ZM233.507 467C225.273 467 217.225 464.558 210.379 459.983C203.534 455.409 198.198 448.907 195.048 441.3C191.898 433.693 191.075 425.323 192.682 417.248C194.29 409.173 198.256 401.756 204.079 395.935C209.902 390.115 217.32 386.151 225.395 384.547C233.471 382.943 241.841 383.769 249.447 386.922C257.052 390.075 263.552 395.413 268.124 402.26C272.696 409.107 275.135 417.156 275.132 425.39C275.103 436.419 270.708 446.989 262.907 454.786C255.107 462.584 244.536 466.975 233.507 467ZM233.507 83.2501C228.038 83.2583 222.621 82.1872 217.568 80.0982C212.514 78.0093 207.922 74.9435 204.055 71.0766C200.188 67.2097 197.122 62.6177 195.033 57.5638C192.944 52.5099 191.873 47.0934 191.881 41.6248C191.881 30.5872 196.266 20.0016 204.071 12.1968C211.876 4.39201 222.461 0.00732422 233.499 0.00732422C244.536 0.00732422 255.122 4.39201 262.927 12.1968C270.732 20.0016 275.116 30.5872 275.116 41.6248C275.122 47.0908 274.05 52.5043 271.961 57.5554C269.872 62.6065 266.808 67.196 262.943 71.061C259.078 74.9261 254.488 77.9908 249.437 80.0797C244.386 82.1686 238.973 83.2407 233.507 83.2345" />
</svg>
