<svg viewBox="0 0 513 513" xmlns="http://www.w3.org/2000/svg">
	<g clip-path="url(#clip0)">
		<path d="M346.212 227.486C345.476 227.486 344.748 227.502 344.02 227.53C335.14 208.466 316.204 196.306 294.984 196.306C286.316 196.306 277.832 198.374 270.192 202.326C261.228 183.894 242.208 171.802 221.496 171.802C191.664 171.802 167.396 196.074 167.396 225.91C167.396 226.442 167.404 226.974 167.42 227.51C166.884 227.49 166.348 227.482 165.824 227.482C135.992 227.482 111.724 251.75 111.724 281.582C111.724 310.606 135.2 334.918 164.156 335.802C164.336 335.83 164.52 336.002 164.712 336.002H347.32C347.508 336.002 347.696 335.83 347.876 335.806C376.832 334.922 400.312 310.69 400.312 281.662C400.312 251.834 376.044 227.486 346.212 227.486Z" fill="black" />
		<path d="M475.664 196.002H350.88C353.464 200.002 355.892 201.418 358.092 204.422C382.16 208.11 402.592 222.838 414.16 243.242C416.936 241.006 420.416 239.606 424.248 239.606C433.184 239.606 440.46 246.874 440.46 255.81C440.46 264.746 433.188 272.018 424.248 272.018C424.04 272.018 423.852 271.962 423.652 271.954C424.044 275.118 424.316 278.478 424.316 281.742C424.316 293.918 421.364 303.998 416.24 315.998H475.664C495.516 315.998 512 299.53 512 279.678V231.93C512 212.082 495.516 196.002 475.664 196.002ZM464.296 272.018C455.36 272.018 448.088 264.746 448.088 255.806C448.088 246.866 455.356 239.598 464.296 239.598C473.236 239.598 480.508 246.866 480.508 255.806C480.508 264.746 473.236 272.018 464.296 272.018Z" />
		<path d="M36.368 196.002C16.516 196.002 0 212.082 0 231.93V279.682C0 299.534 16.516 316.002 36.368 316.002H95.792C90.668 304.002 87.72 293.918 87.72 281.746C87.72 245.546 112.48 214.974 145.956 206.162C146.868 202.682 148.072 200.002 149.436 196.002H36.368ZM55.992 279.558C42.896 279.558 32.24 268.906 32.24 255.806C32.24 242.714 42.892 232.054 55.992 232.054C69.092 232.054 79.744 242.71 79.744 255.806C79.744 268.906 69.088 279.558 55.992 279.558Z" fill="black" />
		<path d="M221.496 171.802C221.444 171.802 221.396 171.81 221.344 171.81H221.712C221.64 171.81 221.568 171.802 221.496 171.802Z" />
		<path d="M475.664 52.002H36.368C16.516 52.002 0 68.21 0 88.062V135.814C0 155.662 16.516 172.002 36.368 172.002H165.28C179.5 156.002 199.428 147.994 221.5 147.994C242.888 147.994 263.172 156.002 277.716 172.002H475.668C495.52 172.002 512.004 155.662 512.004 135.81V88.062C512 68.21 495.516 52.002 475.664 52.002ZM55.992 135.686C42.896 135.686 32.24 125.034 32.24 111.934C32.24 98.834 42.892 88.182 55.992 88.182C69.092 88.182 79.744 98.834 79.744 111.934C79.744 125.034 69.088 135.686 55.992 135.686ZM356 116.002C356 127.05 347.048 136.002 336 136.002H120C108.952 136.002 100 127.05 100 116.002V108.002C100 96.954 108.952 88.002 120 88.002H336C347.048 88.002 356 96.954 356 108.002V116.002ZM384.244 128.142C375.308 128.142 368.036 120.874 368.036 111.934C368.036 102.994 375.304 95.722 384.244 95.722C393.184 95.722 400.452 102.994 400.452 111.934C400.452 120.874 393.18 128.142 384.244 128.142ZM424.248 128.142C415.312 128.142 408.04 120.874 408.04 111.934C408.04 102.994 415.308 95.722 424.248 95.722C433.188 95.722 440.46 102.994 440.46 111.934C440.46 120.874 433.184 128.142 424.248 128.142ZM464.296 128.142C455.36 128.142 448.088 120.874 448.088 111.934C448.088 102.994 455.356 95.722 464.296 95.722C473.236 95.722 480.508 102.994 480.508 111.934C480.508 120.874 473.236 128.142 464.296 128.142Z" fill="black" />
		<path d="M475.664 340.002H397.996C384.912 352.002 367.972 359.162 349.42 359.922C348.72 359.978 348.02 360.002 347.32 360.002H164.712C164.016 360.002 163.316 359.978 162.62 359.922C144.064 359.166 127.116 352.002 114.036 340.002H36.368C16.516 340.002 0 355.834 0 375.686V423.438C0 443.286 16.516 460.002 36.368 460.002H475.664C495.516 460.002 512 443.286 512 423.434V375.686C512 355.834 495.516 340.002 475.664 340.002ZM55.992 423.31C42.896 423.31 32.24 412.658 32.24 399.558C32.24 386.458 42.892 375.806 55.992 375.806C69.092 375.806 79.744 386.458 79.744 399.558C79.744 412.658 69.088 423.31 55.992 423.31ZM356 404.002C356 415.05 347.048 424.002 336 424.002H120C108.952 424.002 100 415.05 100 404.002V396.002C100 384.954 108.952 376.002 120 376.002H336C347.048 376.002 356 384.954 356 396.002V404.002ZM384.244 415.766C375.308 415.766 368.036 408.498 368.036 399.558C368.036 390.618 375.304 383.35 384.244 383.35C393.184 383.35 400.452 390.618 400.452 399.558C400.452 408.498 393.18 415.766 384.244 415.766ZM424.248 415.766C415.312 415.766 408.04 408.498 408.04 399.558C408.04 390.618 415.308 383.35 424.248 383.35C433.188 383.35 440.46 390.618 440.46 399.558C440.46 408.498 433.184 415.766 424.248 415.766ZM464.296 415.766C455.36 415.766 448.088 408.498 448.088 399.558C448.088 390.618 455.356 383.35 464.296 383.35C473.236 383.35 480.508 390.618 480.508 399.558C480.508 408.498 473.236 415.766 464.296 415.766Z" fill="black" />
	</g>
	<defs>
		<clipPath id="clip0">
			<rect width="512.004" height="512.004" fill="white" />
		</clipPath>
	</defs>
</svg>
