<svg viewBox="0 0 471 471" xmlns="http://www.w3.org/2000/svg">
	<path d="M35.1767 0C30.8479 0 27.6225 3.5276 28.0066 7.83911L64.501 417.184C64.8851 421.496 68.611 425.971 72.784 427.129L227.647 470.128C231.819 471.287 238.644 471.286 242.817 470.131L398.151 427.062C402.323 425.905 406.053 421.429 406.437 417.119L442.992 7.83911C443.379 3.5276 440.15 0 435.822 0H35.1767ZM365.273 93.882C364.928 97.7276 364.331 104.403 363.947 108.715L362.985 119.455C362.598 123.765 362.047 129.929 361.756 133.152C361.466 136.375 361.191 139.012 361.141 139.012C361.092 139.012 357.509 139.012 353.18 139.012H243.37C239.041 139.012 235.463 139.012 235.416 139.012C235.368 139.012 231.787 139.012 227.459 139.012H169.625C165.297 139.012 162.071 142.54 162.455 146.851L165.829 184.559C166.213 188.869 170.071 192.398 174.4 192.398H227.46C231.789 192.398 235.37 192.398 235.417 192.398C235.464 192.398 239.042 192.398 243.371 192.398H334.574C338.903 192.398 345.602 192.398 349.461 192.398C353.316 192.398 356.187 195.545 355.837 199.391C355.486 203.236 354.887 209.913 354.503 214.223L343.655 335.789C343.268 340.101 342.778 345.609 342.568 348.03C342.352 350.449 338.764 353.376 334.593 354.533L243.085 379.906C238.913 381.061 235.447 382.018 235.383 382.032C235.318 382.047 231.853 381.11 227.68 379.953L136.075 354.534C131.903 353.377 128.176 348.902 127.792 344.59L121.895 278.407C121.511 274.095 124.739 270.567 129.068 270.567H137.428C141.757 270.567 148.841 270.567 153.17 270.567H165.637C169.965 270.567 173.82 274.095 174.208 278.407L176.52 304.315C176.904 308.626 180.636 313.077 184.817 314.205L227.666 325.776C231.844 326.905 235.279 327.829 235.298 327.829C235.317 327.829 238.75 326.904 242.929 325.775L285.855 314.175C290.033 313.047 293.768 308.595 294.156 304.285L298.81 252.377C299.197 248.065 295.972 244.538 291.643 244.538H243.371C239.042 244.538 235.464 244.538 235.417 244.538C235.37 244.538 231.789 244.538 227.46 244.538H126.734C122.405 244.538 118.55 241.009 118.166 236.699L106.744 108.713C106.36 104.402 105.763 97.7276 105.419 93.8805C105.077 90.0349 108.337 86.8882 112.666 86.8882H227.46C231.789 86.8882 235.37 86.8882 235.417 86.8882C235.464 86.8882 239.042 86.8882 243.371 86.8882H358.027C362.354 86.8882 365.616 90.0349 365.273 93.882Z" />
</svg>
