<svg viewBox="0 0 451 451" xmlns="http://www.w3.org/2000/svg">
	<path d="M0 0H451V451H0V0ZM414.056 343.436C410.767 322.86 397.369 305.571 357.624 289.448C343.794 282.965 328.422 278.455 323.856 268.026C322.146 261.824 321.882 258.442 322.991 254.777C325.81 242.638 340.186 238.992 351.461 242.375C358.789 244.63 365.554 250.267 369.801 259.287C389.232 246.584 389.232 246.584 402.781 238.147C397.707 230.254 395.189 226.853 391.769 223.489C379.93 210.241 364.164 203.476 338.513 204.059L325.265 205.731C312.562 208.832 300.46 215.597 293.131 224.617C271.709 248.877 277.891 291.158 303.824 308.634C329.474 327.802 366.982 332.011 371.774 350.07C376.284 372.056 355.426 379.103 334.83 376.566C319.59 373.184 311.152 365.554 301.851 351.461L267.462 371.211C271.408 380.231 275.918 384.158 282.683 392.051C315.381 425.049 397.124 423.357 411.801 373.184C412.346 371.492 416.311 359.936 413.191 342.177L414.056 343.436ZM245.25 207.291H203.006C203.006 243.709 202.837 279.902 202.837 316.376C202.837 339.528 204.021 360.781 200.244 367.321C194.043 380.268 178.07 378.615 170.816 376.341C163.375 372.658 159.598 367.584 155.219 360.274C154.035 358.301 153.152 356.591 152.833 356.591L118.538 377.731C124.269 389.57 132.632 399.755 143.418 406.238C159.485 415.822 181.076 418.923 203.683 413.849C218.397 409.602 231.081 400.864 237.715 387.334C247.298 369.858 245.269 348.435 245.175 324.457C245.4 285.859 245.175 247.242 245.175 208.343L245.25 207.291Z" />
</svg>
