<svg viewBox="0 0 448 448" xmlns="http://www.w3.org/2000/svg">
	<path d="M320.691 177.669C297.115 73.8827 241.507 39.7787 235.534 26.7307C228.963 17.528 221.851 0 221.851 0C221.814 0.354667 221.777 0.578667 221.758 0.914667V1.15733H221.739C221.702 1.43733 221.683 1.624 221.665 1.88533V2.16533H221.627C221.627 2.352 221.59 2.50133 221.59 2.65067V3.136H221.534C221.515 3.28533 221.515 3.472 221.478 3.60267V3.99467H221.441C221.441 4.12533 221.441 4.27467 221.403 4.38667V4.76H221.366C221.366 4.94667 221.347 5.17067 221.329 5.35733V5.39467C221.273 5.712 221.217 6.02933 221.161 6.328V6.47733H221.123C221.105 6.552 221.067 6.62667 221.067 6.70133V7.01867H221.011V7.42933H220.918V7.76533H220.825V8.15733H220.75V8.512H220.675V8.82933H220.563V9.09067H220.489V9.42667H220.414V9.688H220.321V9.93067H220.265V10.2107H220.19C220.171 10.2293 220.171 10.2667 220.171 10.2853V10.472H220.115C220.097 10.5093 220.097 10.5467 220.097 10.584V10.696H220.059C220.041 10.752 220.022 10.8453 220.022 10.8827C219.966 11.0133 219.891 11.144 219.835 11.2747V11.312C219.798 11.3493 219.761 11.4053 219.742 11.4427V11.592H219.667V11.7413H219.574V11.8907H219.518V12.0773H219.406V12.3387H219.331V12.4133H219.257V12.5627H219.182V12.768H219.107V12.9173H218.995V13.1227H218.921V13.272H218.827V13.4213H218.771V13.608H218.678V13.7573H218.603V13.8693H218.529V14.0187H218.417V14.1867H218.342V14.2987H218.249V14.448H218.174V14.6533H218.081V14.728H218.025V14.8773H217.913V14.952H217.838V15.1387H217.763V15.2133H217.689V15.3627H217.595V15.4747H217.539L217.502 15.5493V15.624H217.465C217.446 15.6613 217.427 15.6613 217.427 15.6987V15.7173H217.409C217.39 15.7733 217.371 15.8107 217.334 15.848V15.904H217.315C217.222 16.016 217.166 16.128 217.091 16.24V16.2587C217.054 16.296 216.961 16.3707 216.923 16.4453V16.4827H216.905C216.886 16.5013 216.849 16.52 216.849 16.5387V16.5947H216.811L216.755 16.6507V16.6693H216.737C216.737 16.688 216.699 16.7067 216.681 16.744V16.8187H216.625L216.587 16.856V16.8933H216.55C216.55 16.9307 216.513 16.9307 216.513 16.9493V17.0053H216.438C216.438 17.024 216.419 17.0427 216.401 17.0613V17.1733H216.345V17.248H216.27V17.36H216.195V17.5093H216.102V17.36H216.009V17.4347H215.934V17.5467H215.841V17.696H215.747V17.7707H215.673V17.8827H215.598V17.9573H215.523V18.1067H215.411V18.1813H215.337V18.2933H215.243V18.368H215.169V18.4613H215.075V18.648H215.038V18.7227H214.926V18.816H214.851V18.8533H214.777V18.928H214.683V19.1147H214.609V19.1893H214.515V19.264H214.441V19.376H214.347V19.4507H214.254V19.5253H214.179V19.6H214.105V19.7867H214.03V19.88H213.918V19.9547H213.843V20.0293H213.75V20.1413H213.675V20.216H213.582V20.3467H213.507V20.4213H213.395V20.5333H213.358V20.608H213.283V20.6827H213.19V20.7573H213.115V20.8693H213.022V20.944H212.966C212.947 20.9627 212.947 20.9813 212.947 20.9813V21.0187H212.91L212.835 21.0933C212.835 21.0933 212.798 21.1307 212.761 21.1493V21.2613H212.686V21.3547H212.611V21.4293H212.537V21.504H212.481L212.425 21.56V21.616H212.387L212.35 21.6533V21.7093H212.313C212.219 21.8213 212.182 21.896 212.051 22.008C212.014 22.0453 211.902 22.1387 211.827 22.1947C211.603 22.344 211.323 22.5867 211.099 22.792C210.95 22.8853 210.801 23.016 210.689 23.1093V23.128H210.67C210.371 23.3707 210.091 23.5947 209.755 23.856V23.8747C209.307 24.248 208.878 24.6027 208.374 25.032V25.0133H208.337C207.273 25.8907 206.153 26.88 204.865 27.9813V28H204.846C201.691 30.7627 197.939 34.3093 193.739 38.6027L193.459 38.8827L193.385 38.9573C167.998 65.2213 127.995 119.952 123.777 208.395C123.403 215.712 123.478 222.824 123.889 229.749V229.917C125.923 264.768 136.862 294.523 150.545 318.696V318.715C155.995 328.347 161.875 337.101 167.83 344.941V344.96C188.401 372.12 209.401 388.211 214.758 392.112C222.99 411.208 222.225 443.987 222.225 443.987L234.246 448C234.246 448 231.801 416.248 235.235 400.923C236.299 396.125 238.819 392.037 241.75 388.565C243.729 387.165 249.59 382.947 256.627 376.525C256.963 376.171 257.15 375.853 257.449 375.517C285.841 349.048 338.873 283.864 320.691 177.669Z" />
</svg>
