<svg viewBox="0 0 483 483" xmlns="http://www.w3.org/2000/svg">
	<path d="M241.5 198.453C235.847 198.453 230.249 199.566 225.026 201.729C219.804 203.893 215.058 207.064 211.061 211.061C207.064 215.058 203.893 219.804 201.729 225.026C199.566 230.249 198.453 235.847 198.453 241.5C198.453 247.153 199.566 252.751 201.729 257.973C203.893 263.196 207.064 267.942 211.061 271.939C215.058 275.936 219.804 279.107 225.026 281.271C230.249 283.434 235.847 284.547 241.5 284.547C247.153 284.547 252.751 283.434 257.974 281.271C263.196 279.107 267.942 275.936 271.939 271.939C275.936 267.942 279.107 263.196 281.271 257.973C283.434 252.751 284.547 247.153 284.547 241.5C284.547 235.847 283.434 230.249 281.271 225.026C279.107 219.804 275.936 215.058 271.939 211.061C267.942 207.064 263.196 203.893 257.974 201.729C252.751 199.566 247.153 198.453 241.5 198.453ZM120.911 327.132L111.412 324.717C40.6122 306.826 0 276.457 0 241.419C0 206.382 40.6122 176.013 111.412 158.122L120.911 155.727L123.588 165.146C130.76 189.853 139.934 213.936 151.018 237.153L153.051 241.44L151.018 245.726C139.915 268.936 130.741 293.019 123.588 317.733L120.911 327.132ZM107.005 180.119C53.1904 195.233 20.1652 218.356 20.1652 241.419C20.1652 264.463 53.1904 287.586 107.005 302.72C113.586 281.789 121.532 261.311 130.792 241.419C121.522 221.532 113.575 201.054 107.005 180.119ZM362.089 327.132L359.412 317.693C352.247 292.987 343.066 268.91 331.962 245.706L329.929 241.419L331.962 237.133C343.062 213.92 352.243 189.837 359.412 165.126L362.089 155.707L371.608 158.102C442.388 175.993 483 206.362 483 241.419C483 276.477 442.388 306.826 371.608 324.717L362.089 327.132ZM352.208 241.419C361.868 262.329 369.857 282.877 375.995 302.72C429.83 287.586 462.835 264.463 462.835 241.419C462.835 218.356 429.81 195.253 375.995 180.119C369.423 201.053 361.476 221.531 352.208 241.419ZM106.864 180.018L104.187 170.62C84.2835 100.464 90.321 50.1916 120.75 32.6426C150.595 15.4156 198.513 35.762 248.725 87.3021L255.567 94.3258L248.725 101.349C230.883 119.897 214.582 139.866 199.982 161.06L197.265 164.944L192.536 165.347C166.855 167.371 141.38 171.477 116.363 177.623L106.864 180.018ZM145.021 46.5893C139.627 46.5893 134.858 47.7565 130.833 50.0709C110.828 61.6025 107.286 101.692 121.072 155.788C142.518 151.017 164.252 147.649 186.136 145.705C198.763 127.751 212.558 110.648 227.433 94.5069C196.038 63.937 166.313 46.5893 145.021 46.5893ZM337.999 456.375C337.979 456.375 337.979 456.375 337.999 456.375C309.321 456.375 272.492 434.78 234.275 395.537L227.433 388.513L234.275 381.489C252.112 362.936 268.407 342.96 282.998 321.758L285.715 317.874L290.424 317.472C316.118 315.458 341.607 311.36 366.637 305.216L376.136 302.821L378.833 312.239C398.696 382.355 392.679 432.647 362.25 450.176C354.859 454.355 346.489 456.494 337.999 456.375ZM255.567 388.332C286.962 418.902 316.687 436.25 337.979 436.25H337.999C343.373 436.25 348.163 435.082 352.167 432.768C372.172 421.236 375.734 381.127 361.928 327.031C340.477 331.809 318.735 335.177 296.844 337.114C284.232 355.08 270.443 372.19 255.567 388.332ZM376.136 180.018L366.637 177.623C341.61 171.459 316.121 167.353 290.424 165.347L285.715 164.944L282.998 161.06C268.414 139.86 252.119 119.889 234.275 101.349L227.433 94.3258L234.275 87.3021C284.467 35.7821 332.364 15.4358 362.25 32.6426C392.679 50.1916 398.716 100.464 378.833 170.6L376.136 180.018ZM296.844 145.705C319.827 147.798 341.662 151.199 361.928 155.788C375.734 101.692 372.172 61.6025 352.167 50.0709C332.284 38.5795 294.912 56.1889 255.567 94.5069C270.435 110.649 284.223 127.752 296.844 145.705ZM145.021 456.375C136.524 456.498 128.147 454.359 120.75 450.176C90.321 432.647 84.2835 382.375 104.187 312.239L106.844 302.821L116.343 305.216C139.587 311.072 165.226 315.198 192.516 317.472L197.245 317.874L199.942 321.758C214.544 342.957 230.845 362.933 248.685 381.489L255.527 388.513L248.685 395.537C210.487 434.78 173.659 456.375 145.021 456.375ZM121.072 327.031C107.266 381.127 110.828 421.236 130.833 432.768C150.696 444.098 188.048 426.63 227.433 388.332C212.564 372.179 198.769 355.069 186.136 337.114C164.251 335.178 142.516 331.81 121.072 327.031ZM241.5 339.67C224.937 339.67 207.911 338.945 190.866 337.536L186.136 337.134L183.419 333.25C173.778 319.396 164.714 305.148 156.251 290.545C147.813 275.929 139.984 260.97 132.785 245.706L130.772 241.419L132.785 237.133C139.983 221.868 147.811 206.909 156.251 192.294C164.582 177.885 173.739 163.516 183.419 149.589L186.136 145.705L190.866 145.302C224.568 142.445 258.452 142.445 292.155 145.302L296.864 145.705L299.561 149.589C318.864 177.302 335.808 206.586 350.215 237.133L352.248 241.419L350.215 245.706C335.843 276.271 318.897 305.557 299.561 333.25L296.864 337.134L292.155 337.536C275.109 338.945 258.063 339.67 241.5 339.67ZM197.285 317.854C227.07 320.088 255.93 320.088 285.735 317.854C302.375 293.528 317.148 267.977 329.929 241.419C317.171 214.846 302.389 189.292 285.715 164.985C256.281 162.751 226.719 162.751 197.285 164.985C180.603 189.288 165.821 214.842 153.071 241.419C165.865 267.974 180.646 293.524 197.285 317.854Z" />
</svg>
