<svg viewBox="0 0 458 458" xmlns="http://www.w3.org/2000/svg">
	<path d="M317.412 314.953C333.996 313.522 346.858 298.923 346.018 281.481C345.14 264.039 330.847 250.032 313.424 250.032H312.26C294.264 250.623 280.238 265.756 280.81 283.79C281.383 292.931 285.123 300.373 290.238 305.793C270.238 344.685 240.22 373.272 194.745 397.298C164.154 413.29 131.846 419.32 100.397 415.026C74.0997 411.324 53.5279 399.569 40.9329 380.714C22.0786 352.108 20.3611 321.251 36.0666 290.374C47.5357 268.065 64.6726 251.768 76.1226 243.753C73.2601 236.33 69.8251 223.754 68.1076 214.327C-16.5461 274.954 -7.93952 357.852 17.7848 397.031C36.9445 425.617 76.1226 443.899 119.003 443.899C130.434 443.899 142.456 443.06 154.173 440.197C228.522 425.904 284.837 381.306 317.145 315.545L317.412 314.953ZM419.47 243.467C375.177 191.427 309.97 162.84 235.621 162.84H225.889C221.06 152.268 209.916 145.684 197.321 145.684H196.462C178.466 145.684 164.44 161.141 165.032 179.137C165.604 196.274 180.184 210.586 197.626 210.586H199.038C211.92 210.014 223.064 201.999 227.625 190.568H238.216C282.28 190.568 323.996 203.43 362.029 228.582C391.169 247.742 412.066 272.893 423.783 302.931C434.05 327.51 433.496 351.536 422.924 371.573C406.627 403.004 379.166 419.606 342.869 419.606C319.988 419.606 297.699 412.45 286.249 407.316C279.398 413.003 267.948 422.45 259.647 428.175C284.799 439.586 310.256 446.17 334.835 446.17C390.597 446.17 432.027 414.74 447.771 384.416C464.907 350.105 463.495 292.358 419.737 242.894L419.47 243.467ZM123.85 325.22C124.403 342.376 138.983 356.669 156.444 356.669H157.589C175.89 356.097 189.897 340.964 189.039 322.93C189.039 305.774 174.173 291.5 156.731 291.5H155.566C154.421 291.5 152.723 291.5 151.273 292.053C127.552 252.016 117.533 209.117 121.274 162.84C123.545 127.956 134.995 97.6321 155.566 72.4803C172.722 51.0306 205.03 40.4394 227.053 39.886C288.806 38.7219 314.55 115.666 316.534 146.256L345.121 154.825C338.537 61.0494 280.238 11.8525 224.476 11.8525C172.15 11.8525 123.85 49.8856 104.385 105.647C77.8019 179.996 95.2441 251.463 127.838 308.656C124.995 312.377 123.277 318.942 123.85 325.22Z" fill="black" />
</svg>
