<svg viewBox="0 0 431 431" xmlns="http://www.w3.org/2000/svg">
	<path d="M215.5 0C334.51 0 431 96.4901 431 215.5C431 334.51 334.51 431 215.5 431C96.4901 431 0 334.51 0 215.5C0 96.4901 96.4901 0 215.5 0ZM172.669 287.297C175.812 298.881 175.471 309.709 172.238 319.479L171.071 322.711C170.64 323.807 170.137 324.866 169.67 325.872C167.156 331.08 163.816 335.929 159.703 340.418C147.169 354.049 129.677 359.221 122.171 354.875C114.089 350.17 118.112 330.9 132.658 315.546C148.3 299.06 170.73 288.447 170.73 288.447V288.393L172.669 287.297ZM350.654 92.252C340.921 53.9468 277.438 41.358 217.368 62.7105C181.649 75.407 142.948 95.3587 115.131 121.38C82.0337 152.287 76.7719 179.224 78.9448 190.484C86.613 230.19 141.027 256.158 163.403 275.427V275.535C156.812 278.767 108.522 302.993 97.2085 328.063C85.0866 354.462 99.0941 373.336 108.253 375.742C136.537 383.572 165.63 369.277 181.253 346.129C196.338 323.483 195.01 294.391 188.509 280.114C197.416 277.69 207.904 276.612 221.372 278.246C259.103 282.556 266.645 306.261 265.011 315.959C263.395 325.638 255.619 331.295 252.907 332.912C250.213 334.546 249.405 335.067 249.657 336.162C249.926 337.778 251.291 337.778 253.428 337.509C256.391 336.97 273.11 329.428 273.918 311.092C274.727 287.926 252.62 262.084 213.309 262.605C197.147 262.892 186.892 264.239 179.637 267.202C179.098 266.394 178.542 265.855 177.752 265.316C153.508 239.187 108.522 220.87 110.408 186.12C110.947 173.46 115.526 140.075 196.608 99.6688C263.143 66.5177 316.228 75.6944 325.387 95.8975C338.551 124.703 297.085 178.326 227.855 186.12C201.457 189.083 187.718 178.865 184.199 175.076C180.445 171.035 179.907 170.766 178.56 171.592C176.405 172.669 177.752 176.171 178.56 178.326C180.715 183.714 189.065 193.142 203.63 197.991C216.272 202.031 247.268 204.438 284.442 189.909C326.177 173.765 358.772 128.761 349.343 91.0488L350.654 92.252Z" />
</svg>
