<svg viewBox="0 0 420 420" xmlns="http://www.w3.org/2000/svg">
	<g clip-path="url(#clip0)">
		<path d="M210.018 84.0005C154.018 84.0005 119.018 112 105.018 168.001C126.018 140 150.518 129.5 178.518 136.5C194.495 140.49 205.905 152.075 218.558 164.92C239.155 185.815 262.973 210 315.018 210C371.018 210 406.018 182 420.018 126C399.018 154 374.518 164.5 346.518 157.5C330.54 153.51 319.13 141.925 306.478 129.08C285.898 108.185 262.08 84.0005 210.018 84.0005ZM105.018 210C49.0176 210 14.0176 238 0.0175781 294C21.0176 266 45.5176 255.501 73.5176 262.501C89.4951 266.491 100.905 278.076 113.558 290.921C134.155 311.816 157.973 336.001 210.018 336.001C266.018 336.001 301.018 308.001 315.018 252C294.018 280.001 269.518 290.501 241.518 283.501C225.54 279.511 214.13 267.926 201.478 255.081C180.898 234.186 157.08 210 105.018 210Z" />
	</g>
	<defs>
		<clipPath id="clip0">
			<rect width="420" height="420" fill="white" />
		</clipPath>
	</defs>
</svg>
