<svg viewBox="0 0 450 450" xmlns="http://www.w3.org/2000/svg">
	<path fill-rule="evenodd" clip-rule="evenodd" d="M225 45C230.968 45 236.691 47.3705 240.91 51.5901C245.13 55.8097 247.5 61.5326 247.5 67.5V90C247.5 95.9674 245.13 101.69 240.91 105.91C236.691 110.129 230.968 112.5 225 112.5C219.033 112.5 213.31 110.129 209.09 105.91C204.871 101.69 202.5 95.9674 202.5 90V67.5C202.5 61.5326 204.871 55.8097 209.09 51.5901C213.31 47.3705 219.033 45 225 45V45ZM315 225C315 248.869 305.518 271.761 288.64 288.64C271.762 305.518 248.87 315 225 315C201.131 315 178.239 305.518 161.361 288.64C144.482 271.761 135 248.869 135 225C135 201.131 144.482 178.239 161.361 161.36C178.239 144.482 201.131 135 225 135C248.87 135 271.762 144.482 288.64 161.36C305.518 178.239 315 201.131 315 225V225ZM304.56 336.375L320.468 352.282C324.711 356.381 330.395 358.649 336.294 358.598C342.194 358.546 347.837 356.18 352.009 352.008C356.18 347.837 358.547 342.193 358.598 336.294C358.649 330.395 356.381 324.711 352.283 320.468L336.375 304.56C332.132 300.461 326.448 298.194 320.549 298.245C314.649 298.296 309.006 300.662 304.834 304.834C300.663 309.006 298.296 314.649 298.245 320.548C298.194 326.448 300.462 332.131 304.56 336.375V336.375ZM352.26 97.7175C356.478 101.937 358.848 107.659 358.848 113.625C358.848 119.591 356.478 125.313 352.26 129.532L336.375 145.44C334.3 147.589 331.817 149.303 329.072 150.482C326.327 151.661 323.374 152.282 320.387 152.308C317.399 152.334 314.436 151.765 311.671 150.633C308.906 149.502 306.394 147.831 304.281 145.719C302.169 143.606 300.498 141.094 299.367 138.329C298.235 135.564 297.666 132.601 297.692 129.613C297.718 126.626 298.339 123.673 299.518 120.928C300.697 118.183 302.411 115.701 304.56 113.625L320.468 97.7175C324.687 93.4994 330.409 91.1298 336.375 91.1298C342.341 91.1298 348.063 93.4994 352.283 97.7175H352.26ZM382.5 247.5C388.468 247.5 394.191 245.129 398.41 240.91C402.63 236.69 405 230.967 405 225C405 219.033 402.63 213.31 398.41 209.09C394.191 204.871 388.468 202.5 382.5 202.5H360C354.033 202.5 348.31 204.871 344.09 209.09C339.871 213.31 337.5 219.033 337.5 225C337.5 230.967 339.871 236.69 344.09 240.91C348.31 245.129 354.033 247.5 360 247.5H382.5ZM225 337.5C230.968 337.5 236.691 339.871 240.91 344.09C245.13 348.31 247.5 354.033 247.5 360V382.5C247.5 388.467 245.13 394.19 240.91 398.41C236.691 402.629 230.968 405 225 405C219.033 405 213.31 402.629 209.09 398.41C204.871 394.19 202.5 388.467 202.5 382.5V360C202.5 354.033 204.871 348.31 209.09 344.09C213.31 339.871 219.033 337.5 225 337.5V337.5ZM113.625 145.44C115.714 147.53 118.195 149.189 120.925 150.321C123.654 151.453 126.581 152.036 129.536 152.037C132.491 152.038 135.418 151.457 138.149 150.327C140.88 149.197 143.361 147.54 145.451 145.451C147.542 143.362 149.201 140.882 150.332 138.152C151.464 135.422 152.047 132.496 152.049 129.54C152.05 126.585 151.469 123.659 150.339 120.928C149.209 118.197 147.552 115.715 145.463 113.625L129.533 97.7175C125.289 93.6189 119.606 91.3511 113.706 91.4023C107.807 91.4536 102.163 93.8199 97.9918 97.9916C93.8201 102.163 91.4538 107.807 91.4026 113.706C91.3513 119.605 93.6192 125.289 97.7177 129.532L113.625 145.44V145.44ZM145.44 336.375L129.533 352.282C125.289 356.381 119.606 358.649 113.706 358.598C107.807 358.546 102.163 356.18 97.9918 352.008C93.8201 347.837 91.4538 342.193 91.4026 336.294C91.3513 330.395 93.6192 324.711 97.7177 320.468L113.625 304.56C117.869 300.461 123.552 298.194 129.452 298.245C135.351 298.296 140.994 300.662 145.166 304.834C149.338 309.006 151.704 314.649 151.755 320.548C151.807 326.448 149.539 332.131 145.44 336.375V336.375ZM90.0002 247.5C95.9676 247.5 101.691 245.129 105.91 240.91C110.13 236.69 112.5 230.967 112.5 225C112.5 219.033 110.13 213.31 105.91 209.09C101.691 204.871 95.9676 202.5 90.0002 202.5H67.5002C61.5329 202.5 55.8099 204.871 51.5903 209.09C47.3708 213.31 45.0002 219.033 45.0002 225C45.0002 230.967 47.3708 236.69 51.5903 240.91C55.8099 245.129 61.5329 247.5 67.5002 247.5H90.0002Z" />
</svg>
