<svg viewBox="0 0 45 45" fill="none" xmlns="http://www.w3.org/2000/svg">
    <path d="M22.5 0.556885C10.0687 0.556885 0 10.6313 0 23.0569C0 33 6.44625 41.4319 15.3844 44.4038C16.5094 44.6156 16.9219 43.92 16.9219 43.3219C16.9219 42.7875 16.9031 41.3719 16.8938 39.4969C10.635 40.8544 9.315 36.4781 9.315 36.4781C8.29125 33.8813 6.81187 33.1875 6.81187 33.1875C4.77375 31.7925 6.96938 31.8206 6.96938 31.8206C9.22875 31.9781 10.4156 34.1381 10.4156 34.1381C12.4219 37.5788 15.6825 36.585 16.9688 36.0094C17.1713 34.5544 17.7506 33.5625 18.3938 33C13.3969 32.4375 8.145 30.5025 8.145 21.8813C8.145 19.425 9.01688 17.4188 10.4606 15.8438C10.2075 15.2756 9.44812 12.9881 10.6575 9.88876C10.6575 9.88876 12.5419 9.28501 16.845 12.195C18.645 11.6944 20.5575 11.4469 22.47 11.4356C24.3825 11.4469 26.295 11.6944 28.095 12.195C32.37 9.28501 34.2544 9.88876 34.2544 9.88876C35.4637 12.9881 34.7044 15.2756 34.4794 15.8438C35.9137 17.4188 36.7856 19.425 36.7856 21.8813C36.7856 30.525 31.5263 32.4281 26.52 32.9813C27.3075 33.6563 28.0388 35.0363 28.0388 37.1438C28.0388 40.155 28.0106 42.5738 28.0106 43.305C28.0106 43.8956 28.4044 44.5988 29.5575 44.3738C38.5594 41.4225 45 32.985 45 23.0569C45 10.6313 34.9256 0.556885 22.5 0.556885Z" fill="white"/>
</svg>