<svg viewBox="0 0 256 250" xmlns="http://www.w3.org/2000/svg">
	<path d="M127.505 0.5C57.095 0.5 0 57.585 0 128.005C0 184.341 36.534 232.135 87.196 248.995C93.568 250.175 95.908 246.229 95.908 242.861C95.908 239.821 95.789 229.776 95.735 219.122C60.262 226.835 52.777 204.078 52.777 204.078C46.977 189.34 38.62 185.422 38.62 185.422C27.052 177.508 39.492 177.67 39.492 177.67C52.296 178.57 59.038 190.81 59.038 190.81C70.41 210.303 88.866 204.667 96.142 201.41C97.286 193.168 100.591 187.544 104.237 184.36C75.917 181.135 46.145 170.202 46.145 121.346C46.145 107.426 51.126 96.051 59.283 87.122C57.959 83.91 53.595 70.942 60.518 53.379C60.518 53.379 71.225 49.952 95.591 66.449C105.761 63.623 116.669 62.207 127.505 62.159C138.341 62.207 149.257 63.623 159.447 66.449C183.784 49.952 194.476 53.379 194.476 53.379C201.416 70.942 197.05 83.91 195.726 87.122C203.901 96.051 208.848 107.425 208.848 121.346C208.848 170.318 179.02 181.102 150.628 184.258C155.201 188.215 159.276 195.975 159.276 207.87C159.276 224.93 159.128 238.661 159.128 242.861C159.128 246.254 161.423 250.23 167.887 248.978C218.521 232.099 255.009 184.322 255.009 128.005C255.009 57.585 197.922 0.5 127.505 0.5Z" fill="white" />
	<path d="M47.755 182.134C47.475 182.767 46.477 182.957 45.57 182.523C44.645 182.107 44.125 181.243 44.425 180.607C44.7 179.955 45.698 179.773 46.621 180.211C47.548 180.626 48.076 181.498 47.755 182.134V182.134ZM54.027 187.73C53.419 188.294 52.23 188.032 51.423 187.141C50.589 186.252 50.433 185.064 51.05 184.491C51.677 183.928 52.83 184.191 53.666 185.081C54.5 185.98 54.662 187.161 54.026 187.731L54.027 187.73ZM58.33 194.89C57.548 195.433 56.27 194.924 55.481 193.79C54.7 192.657 54.7 191.297 55.498 190.752C56.29 190.207 57.548 190.697 58.348 191.822C59.128 192.975 59.128 194.335 58.329 194.891L58.33 194.89ZM65.606 203.183C64.907 203.953 63.419 203.747 62.329 202.695C61.215 201.667 60.904 200.208 61.605 199.437C62.312 198.665 63.809 198.882 64.907 199.925C66.014 200.951 66.352 202.421 65.607 203.183H65.606ZM75.01 205.983C74.703 206.981 73.269 207.435 71.825 207.011C70.383 206.574 69.439 205.404 69.73 204.395C70.03 203.39 71.47 202.917 72.925 203.371C74.365 203.806 75.311 204.967 75.011 205.983H75.01ZM85.714 207.17C85.75 208.222 84.525 209.094 83.009 209.113C81.484 209.146 80.251 208.295 80.235 207.261C80.235 206.199 81.432 205.335 82.956 205.31C84.472 205.28 85.714 206.125 85.714 207.17V207.17ZM96.228 206.767C96.41 207.793 95.356 208.847 93.851 209.127C92.371 209.397 91.001 208.764 90.812 207.747C90.628 206.695 91.702 205.642 93.179 205.369C94.687 205.107 96.036 205.724 96.228 206.767" />
</svg>
