<svg width="500" height="500" viewBox="0 0 21 21" fill="none" xmlns="http://www.w3.org/2000/svg">
<g clip-path="url(#clip0)">
<path d="M10.3142 0.256897C4.61559 0.256897 0 4.88664 0 10.5969C0 15.1664 2.95501 19.0413 7.05231 20.407C7.56802 20.5044 7.75712 20.1847 7.75712 19.9098C7.75712 19.6643 7.74852 19.0137 7.74422 18.152C4.87516 18.7759 4.27007 16.7647 4.27007 16.7647C3.80077 15.5713 3.12262 15.2525 3.12262 15.2525C2.18832 14.6114 3.19481 14.6244 3.19481 14.6244C4.23053 14.6967 4.7746 15.6894 4.7746 15.6894C5.69428 17.2705 7.18898 16.8139 7.7786 16.5493C7.87143 15.8807 8.13702 15.4249 8.43184 15.1664C6.14123 14.9079 3.73373 14.0186 3.73373 10.0567C3.73373 8.92787 4.1334 8.00588 4.79523 7.28208C4.6792 7.021 4.33109 5.96976 4.88548 4.54542C4.88548 4.54542 5.74929 4.26797 7.72188 5.60528C8.54701 5.37521 9.42371 5.26147 10.3004 5.2563C11.1771 5.26147 12.0538 5.37521 12.879 5.60528C14.8387 4.26797 15.7025 4.54542 15.7025 4.54542C16.2569 5.96976 15.9087 7.021 15.8056 7.28208C16.4631 8.00588 16.8628 8.92787 16.8628 10.0567C16.8628 14.0289 14.4519 14.9035 12.157 15.1577C12.518 15.4679 12.8532 16.1021 12.8532 17.0706C12.8532 18.4545 12.8403 19.566 12.8403 19.9021C12.8403 20.1735 13.0208 20.4966 13.5494 20.3932C17.6759 19.037 20.6283 15.1595 20.6283 10.5969C20.6283 4.88664 16.0102 0.256897 10.3142 0.256897Z" fill="white"/>
</g>
<defs>
<clipPath id="clip0">
<rect width="20.6283" height="20.6801" fill="white"/>
</clipPath>
</defs>
</svg>
