<svg width="500" height="500" viewBox="0 0 21 21" fill="none" xmlns="http://www.w3.org/2000/svg">
<g clip-path="url(#clip0)">
<path d="M10.3845 0C16.0804 0 20.6987 4.62974 20.6987 10.3401C20.6987 16.0504 16.0805 20.6801 10.3845 20.6801C4.68855 20.6801 0.0703125 16.0503 0.0703125 10.3401C0.0703125 4.62982 4.68785 0 10.3845 0Z" fill="white"/>
<path d="M13.9442 4.52246H6.82424C5.58719 4.52246 4.58154 5.53127 4.58154 6.77078V13.9093C4.58154 15.1495 5.58783 16.1576 6.82424 16.1576H13.9449C15.182 16.1576 16.1876 15.1488 16.1876 13.9093V6.77078C16.1875 5.53127 15.1813 4.52246 13.9442 4.52246ZM14.6508 5.82338L14.9047 5.82274V7.75375L12.9644 7.76021L12.958 5.8292L14.6508 5.82338ZM10.3846 8.39349C11.9942 8.39349 12.3262 9.9083 12.3262 10.3406C12.3262 11.4127 11.4547 12.2865 10.3846 12.2865C9.31386 12.2865 8.44296 11.4127 8.44296 10.3406C8.44226 9.9083 8.77492 8.39349 10.3846 8.39349ZM14.9157 13.7684C14.9157 14.383 14.4174 14.8832 13.8031 14.8832H6.94412C6.33041 14.8832 5.83148 14.3836 5.83148 13.7684V9.04494H7.44305C7.2935 9.41394 7.20903 9.91802 7.20903 10.3407C7.20903 12.0946 8.63238 13.5222 10.3826 13.5222C12.1328 13.5222 13.5555 12.0946 13.5555 10.3407C13.5555 9.91802 13.471 9.41394 13.3221 9.04494H14.9143V13.7684H14.9157Z" fill="black"/>
</g>
<defs>
<clipPath id="clip0">
<rect width="20.6284" height="20.6801" fill="white" transform="translate(0.0703125)"/>
</clipPath>
</defs>
</svg>
