<svg viewBox="0 0 22 21" fill="none" xmlns="http://www.w3.org/2000/svg">
    <path d="M10.6945 0C4.99814 0 0.380371 4.62934 0.380371 10.34C0.380371 16.0507 4.99814 20.68 10.6945 20.68C16.3909 20.68 21.0087 16.0507 21.0087 10.34C21.0087 4.62934 16.3908 0 10.6945 0ZM7.94269 15.3389H5.67811V8.00438H7.94269V15.3389ZM6.79961 7.04387C6.06002 7.04387 5.46046 6.4379 5.46046 5.69052C5.46046 4.94306 6.0601 4.33713 6.79961 4.33713C7.53911 4.33713 8.13868 4.94306 8.13868 5.69052C8.13872 6.43794 7.53915 7.04387 6.79961 7.04387ZM16.4292 15.3389H14.1756V11.4889C14.1756 10.433 13.7755 9.84351 12.9426 9.84351C12.0362 9.84351 11.5626 10.4574 11.5626 11.4889V15.3389H9.39062V8.00438H11.5626V8.99222C11.5626 8.99222 12.216 7.78066 13.7673 7.78066C15.3187 7.78066 16.4292 8.73029 16.4292 10.6948L16.4292 15.3389Z" fill="white"/>
</svg>