<svg viewBox="0 0 22 21" fill="none" xmlns="http://www.w3.org/2000/svg">
    <path d="M11.0046 0.159912C5.39609 0.159912 0.849121 4.71827 0.849121 10.3409C0.849121 15.9634 5.39609 20.5218 11.0046 20.5218C16.6132 20.5218 21.1601 15.9634 21.1601 10.3409C21.1601 4.71827 16.6132 0.159912 11.0046 0.159912ZM16.0887 7.72324L16.0975 8.06367C16.0975 12.0899 13.4586 15.5506 8.62998 15.5506C7.14712 15.5506 5.76819 15.1148 4.60666 14.3663C4.81215 14.3902 5.02081 14.4029 5.23265 14.4029C6.46242 14.4029 7.5946 13.9837 8.49193 13.2782C7.34388 13.2575 6.39498 12.556 6.06096 11.5101C6.46639 11.5753 6.95433 11.5196 7.22646 11.4075C6.62665 11.2858 6.10063 10.9597 5.72376 10.5039C5.34769 10.049 5.12157 9.46434 5.12157 8.82724C5.47543 9.0245 5.88006 9.1096 6.31009 9.12471C5.60634 8.65305 5.143 7.84732 5.143 6.93422C5.143 6.45222 5.27153 5.99964 5.49765 5.61229C6.79247 7.20386 8.72678 8.25138 10.9078 8.36114C10.8626 8.16866 10.8396 7.96743 10.8396 7.76142C10.8396 6.30905 12.0154 5.13108 13.465 5.13108C14.2203 5.13108 14.8566 5.44844 15.2985 5.88033C15.7944 5.86363 16.4791 5.62501 17.0479 5.32356C16.852 5.93681 16.4362 6.45301 15.8943 6.77832C16.4251 6.75764 16.8805 6.64709 17.351 6.4379C17.0003 6.96524 16.6044 7.35498 16.0887 7.72324Z" fill="white"/>
</svg>