<svg className="-ml-1 mr-3 h-5 w-5 text-white" xmlns="http://www.w3.org/2000/svg" fill="none" viewBox="0 0 24 24">
	<g clipPath="url(#clip0)">
		<path d="M481.883 61.2381L7.58305 232.638C-1.21695 235.838 -2.71695 247.638 4.98305 252.838L75.883 301.238L397.683 131.538L125.283 334.938V417.338C125.283 422.938 131.583 426.338 136.283 423.238L196.283 383.438L255.383 423.738C260.783 427.438 268.183 425.838 271.683 420.238L486.183 66.5381C487.983 63.6381 485.083 60.0381 481.883 61.2381Z" fill="black" />
	</g>
	<circle className="opacity-25" cx="12" cy="12" r="10" stroke="currentColor" strokeWidth="4" />
	<path className="opacity-75" fill="currentColor" d="M4 12a8 8 0 018-8V0C5.373 0 0 5.373 0 12h4zm2 5.291A7.962 7.962 0 014 12H0c0 3.042 1.135 5.824 3 7.938l3-2.647z" />
</svg>
