<svg width="12" height="12" viewBox="0 0 12 12" fill="none" xmlns="http://www.w3.org/2000/svg">
	<path d="M0 4.99467C0 7.74897 2.24079 9.9873 4.99263 9.9873C6.26044 9.9873 7.42015 9.51064 8.30221 8.72932L11.484 11.9111C11.543 11.9701 11.6192 11.9996 11.6978 11.9996C11.7764 11.9996 11.8526 11.9701 11.9115 11.9111C12.0295 11.7932 12.0295 11.604 11.9115 11.4861L8.72727 8.30426C9.5086 7.42219 9.98526 6.26494 9.98526 4.99467C9.98526 2.24037 7.74447 0.00204468 4.99263 0.00204468C2.24079 0.00204468 0 2.24037 0 4.99467ZM9.38329 4.99467C9.38329 7.41482 7.41278 9.38534 4.99263 9.38534C2.57248 9.38534 0.601966 7.41482 0.601966 4.99467C0.601966 2.57453 2.57248 0.60401 4.99263 0.60401C7.41278 0.60401 9.38329 2.57207 9.38329 4.99467Z" fill="#555555" />
</svg>
