<svg width="500" height="500" viewBox="0 0 19 18" fill="none" xmlns="http://www.w3.org/2000/svg">
<g clip-path="url(#clip0)">
<path d="M9.19542 0.391266C4.20779 0.391266 0.164551 4.3331 0.164551 9.19562C0.164551 14.0582 4.20779 18 9.19542 18C14.183 18 18.2263 14.0582 18.2263 9.19562C18.2263 4.3331 14.183 0.391266 9.19542 0.391266ZM12.6407 4.87496L11.3916 4.8755C10.4122 4.8755 10.2228 5.32927 10.2228 5.99507V7.46321H12.5585L12.5574 9.76271H10.2229V15.6637H7.78669V9.76271H5.75011V7.46321H7.78669V5.76737C7.78669 3.79934 9.02006 2.72751 10.8207 2.72751L12.6409 2.73021V4.87496H12.6407Z" fill="black"/>
</g>
<defs>
<clipPath id="clip0">
<rect width="18.0617" height="17.6087" fill="white" transform="translate(0.164551 0.391266)"/>
</clipPath>
</defs>
</svg>
