<svg width="500" height="500" viewBox="0 0 19 18" fill="none" xmlns="http://www.w3.org/2000/svg">
    <g clip-path="url(#clip0)">
        <path d="M9.03109 0.135468C4.12038 0.135468 0.13916 4.01683 0.13916 8.80437C0.13916 13.5919 4.12038 17.4733 9.03109 17.4733C13.9418 17.4733 17.923 13.5919 17.923 8.80437C17.923 4.01683 13.9418 0.135468 9.03109 0.135468ZM13.4826 6.57552L13.4903 6.86538C13.4903 10.2937 11.1797 13.2404 6.95191 13.2404C5.65355 13.2404 4.44619 12.8693 3.42917 12.232C3.6091 12.2523 3.7918 12.2631 3.97728 12.2631C5.05403 12.2631 6.04535 11.9062 6.83103 11.3055C5.82583 11.2879 4.99499 10.6905 4.70253 9.79994C5.05751 9.85548 5.48474 9.80807 5.72301 9.71258C5.19783 9.60896 4.73726 9.33128 4.40729 8.94321C4.07801 8.55582 3.88002 8.05803 3.88002 7.51555C4.18985 7.68351 4.54414 7.75598 4.92066 7.76885C4.30447 7.36723 3.89878 6.68117 3.89878 5.90368C3.89878 5.49326 4.01132 5.1079 4.2093 4.77807C5.34302 6.13327 7.03666 7.02522 8.94634 7.11868C8.90674 6.95478 8.88659 6.78343 8.88659 6.60803C8.88659 5.37135 9.91611 4.36833 11.1853 4.36833C11.8466 4.36833 12.4038 4.63856 12.7907 5.00631C13.2249 4.99209 13.8244 4.78891 14.3225 4.53223C14.1509 5.05439 13.7869 5.49394 13.3124 5.77093C13.7772 5.75332 14.1759 5.65919 14.5878 5.48107C14.2808 5.93009 13.9342 6.26195 13.4826 6.57552Z" fill="black"/>
    </g>
    <defs>
        <clipPath id="clip0">
            <rect width="18.0617" height="17.6087" fill="white"/>
        </clipPath>
    </defs>
</svg>