<svg viewBox="0 0 300 300" xmlns="http://www.w3.org/2000/svg">
	<path d="M149.498 8C71.3515 8 8 71.353 8 149.499C8 227.642 71.3515 291 149.498 291C227.644 291 291 227.642 291 149.499C291 71.353 227.644 8 149.498 8ZM149.5 57.701L233.235 109.915H65.766L149.5 57.701ZM234.278 193.294H234.27C234.27 201.669 227.482 208.456 219.108 208.456H79.8926C71.5176 208.456 64.7311 201.668 64.7311 193.294V113.237C64.7311 112.352 64.8217 111.49 64.9688 110.644L144.972 160.531C145.071 160.592 145.175 160.634 145.276 160.69C145.382 160.749 145.489 160.805 145.597 160.859C146.162 161.151 146.744 161.386 147.339 161.539C147.401 161.556 147.462 161.564 147.523 161.578C148.176 161.732 148.837 161.828 149.498 161.828H149.502C149.507 161.828 149.512 161.828 149.512 161.828C150.172 161.828 150.833 161.735 151.486 161.578C151.548 161.563 151.609 161.556 151.67 161.539C152.264 161.386 152.845 161.151 153.413 160.859C153.52 160.805 153.628 160.749 153.733 160.69C153.833 160.634 153.939 160.592 154.037 160.531L234.041 110.644C234.188 111.49 234.278 112.35 234.278 113.237V193.294Z" fill="black" />
</svg>
