<svg viewBox="0 0 300 300" fill="none" xmlns="http://www.w3.org/2000/svg">
	<path d="M150.001 19C75.4514 19 15 78.9049 15 152.804C15 211.922 53.6817 262.077 107.322 279.77C114.069 281.008 116.546 276.868 116.546 273.333C116.546 270.143 116.42 259.602 116.363 248.422C78.8046 256.516 70.8796 232.634 70.8796 232.634C64.7386 217.168 55.8903 213.057 55.8903 213.057C43.6423 204.752 56.8136 204.922 56.8136 204.922C70.3703 205.866 77.5086 218.711 77.5086 218.711C89.5491 239.167 109.09 233.252 116.794 229.835C118.005 221.185 121.504 215.284 125.365 211.942C95.3799 208.558 63.8577 197.085 63.8577 145.816C63.8577 131.208 69.1315 119.271 77.768 109.901C76.3662 106.53 71.7456 92.9217 79.0756 74.4911C79.0756 74.4911 90.4121 70.8948 116.21 88.2067C126.978 85.2411 138.528 83.7552 150.001 83.7048C161.474 83.7552 173.031 85.2411 183.82 88.2067C209.588 70.8948 220.909 74.4911 220.909 74.4911C228.256 92.9217 223.634 106.53 222.232 109.901C230.888 119.271 236.125 131.207 236.125 145.816C236.125 197.207 204.544 208.523 174.483 211.835C179.325 215.988 183.639 224.131 183.639 236.614C183.639 254.516 183.483 268.926 183.483 273.333C183.483 276.894 185.912 281.066 192.756 279.752C246.367 262.04 285 211.902 285 152.804C285 78.9049 224.557 19 150.001 19Z" fill="black" />
</svg>
