<svg viewBox="0 0 616 616" fill="none" xmlns="http://www.w3.org/2000/svg">
	<circle cx="308" cy="308" r="308" fill="white" />
	<path d="M244.682 308C244.682 273.023 273.03 244.662 308.008 244.662C342.986 244.662 371.349 273.023 371.349 308C371.349 342.977 342.986 371.338 308.008 371.338C273.03 371.338 244.682 342.977 244.682 308ZM210.441 308C210.441 361.884 254.121 405.563 308.008 405.563C361.894 405.563 405.574 361.884 405.574 308C405.574 254.116 361.894 210.437 308.008 210.437C254.121 210.437 210.443 254.113 210.443 308H210.441ZM386.637 206.569C386.636 211.078 387.971 215.487 390.475 219.237C392.979 222.988 396.539 225.912 400.704 227.639C404.87 229.366 409.454 229.82 413.878 228.942C418.301 228.064 422.364 225.894 425.555 222.706C428.745 219.519 430.918 215.457 431.799 211.035C432.681 206.613 432.231 202.028 430.507 197.861C428.783 193.694 425.862 190.132 422.113 187.626C418.365 185.119 413.957 183.78 409.447 183.778H409.438C403.393 183.781 397.597 186.183 393.322 190.456C389.047 194.729 386.643 200.524 386.637 206.569ZM231.245 462.657C212.72 461.813 202.651 458.728 195.959 456.121C187.088 452.668 180.759 448.554 174.104 441.909C167.449 435.264 163.33 428.94 159.891 420.07C157.283 413.382 154.197 403.31 153.355 384.786C152.434 364.758 152.25 358.742 152.25 308.003C152.25 257.264 152.449 251.264 153.355 231.22C154.199 212.696 157.307 202.644 159.891 195.936C163.345 187.066 167.458 180.736 174.104 174.082C180.75 167.427 187.073 163.308 195.959 159.87C202.648 157.262 212.72 154.176 231.245 153.334C251.273 152.413 257.289 152.229 308.008 152.229C358.726 152.229 364.748 152.425 384.793 153.337C403.318 154.181 413.371 157.289 420.079 159.873C428.95 163.311 435.279 167.44 441.934 174.085C448.589 180.73 452.693 187.069 456.147 195.94C458.755 202.628 461.841 212.699 462.683 231.223C463.604 251.268 463.788 257.267 463.788 308.006C463.788 358.745 463.604 364.745 462.683 384.789C461.839 403.313 458.738 413.382 456.147 420.073C452.693 428.943 448.58 435.273 441.934 441.912C435.288 448.551 428.95 452.671 420.079 456.124C413.39 458.732 403.318 461.818 384.793 462.66C364.765 463.581 358.749 463.765 308.008 463.765C257.266 463.765 251.267 463.581 231.245 462.66V462.657ZM229.671 119.151C209.444 120.072 195.622 123.279 183.551 127.976C171.058 132.826 160.467 139.333 149.892 149.891C139.317 160.449 132.827 171.04 127.976 183.548C123.279 195.626 120.072 209.44 119.151 229.667C118.214 249.925 118 256.402 118 308C118 359.598 118.214 366.075 119.151 386.333C120.072 406.561 123.279 420.374 127.976 432.452C132.827 444.944 139.319 455.556 149.892 466.109C160.466 476.662 171.043 483.16 183.551 488.024C195.645 492.721 209.444 495.928 229.671 496.849C249.941 497.77 256.408 498 308.008 498C359.608 498 366.085 497.786 386.344 496.849C406.573 495.928 420.386 492.721 432.464 488.024C444.957 483.16 455.548 476.667 466.123 466.109C476.698 455.551 483.175 444.944 488.039 432.452C492.736 420.374 495.959 406.56 496.865 386.333C497.786 366.059 498 359.598 498 308C498 256.402 497.786 249.925 496.865 229.667C495.943 209.439 492.736 195.619 488.039 183.548C483.175 171.056 476.681 160.466 466.123 149.891C455.564 139.316 444.958 132.826 432.479 127.976C420.386 123.279 406.571 120.057 386.359 119.151C366.097 118.225 359.623 118 308.03 118C256.438 118 249.949 118.214 229.679 119.151" fill="black" />
</svg>
