<svg viewBox="0 1 616 616" fill="none" xmlns="http://www.w3.org/2000/svg">
	<circle cx="307" cy="307" r="307" fill="black" />
	<path d="M247.681 309.5C247.681 276.456 274.462 249.662 307.507 249.662C340.552 249.662 367.348 276.456 367.348 309.5C367.348 342.544 340.552 369.338 307.507 369.338C274.462 369.338 247.681 342.544 247.681 309.5ZM215.332 309.5C215.332 360.406 256.599 401.671 307.507 401.671C358.415 401.671 399.682 360.406 399.682 309.5C399.682 258.594 358.415 217.329 307.507 217.329C256.599 217.329 215.334 258.591 215.334 309.5H215.332ZM381.792 213.674C381.79 217.935 383.052 222.1 385.417 225.643C387.783 229.186 391.146 231.948 395.081 233.58C399.017 235.212 403.348 235.64 407.526 234.811C411.705 233.981 415.544 231.931 418.558 228.92C421.572 225.909 423.625 222.072 424.458 217.894C425.291 213.716 424.866 209.384 423.237 205.448C421.608 201.511 418.848 198.146 415.307 195.778C411.766 193.41 407.601 192.145 403.341 192.143H403.332C397.622 192.146 392.146 194.415 388.107 198.452C384.068 202.489 381.797 207.964 381.792 213.674ZM234.986 455.61C217.485 454.813 207.973 451.898 201.651 449.435C193.27 446.173 187.291 442.287 181.003 436.009C174.716 429.731 170.825 423.757 167.576 415.376C165.112 409.058 162.197 399.543 161.401 382.042C160.531 363.122 160.357 357.438 160.357 309.503C160.357 261.568 160.545 255.9 161.401 236.963C162.198 219.463 165.135 209.967 167.576 203.629C170.839 195.249 174.725 189.269 181.003 182.983C187.282 176.696 193.256 172.804 201.651 169.556C207.97 167.092 217.485 164.177 234.986 163.381C253.908 162.511 259.592 162.337 307.507 162.337C355.423 162.337 361.112 162.523 380.05 163.384C397.551 164.181 407.047 167.118 413.385 169.559C421.766 172.807 427.745 176.707 434.032 182.986C440.319 189.264 444.197 195.252 447.46 203.632C449.924 209.951 452.839 219.466 453.635 236.966C454.505 255.903 454.679 261.571 454.679 309.506C454.679 357.441 454.505 363.109 453.635 382.045C452.838 399.546 449.908 409.058 447.46 415.379C444.197 423.76 440.311 429.739 434.032 436.012C427.754 442.284 421.766 446.176 413.385 449.438C407.066 451.902 397.551 454.817 380.05 455.613C361.128 456.483 355.444 456.657 307.507 456.657C259.57 456.657 253.902 456.483 234.986 455.613V455.61ZM233.5 131.087C214.39 131.957 201.332 134.987 189.929 139.424C178.126 144.007 168.121 150.154 158.13 160.129C148.139 170.103 142.007 180.109 137.425 191.926C132.987 203.337 129.957 216.387 129.087 235.496C128.202 254.635 128 260.754 128 309.5C128 358.246 128.202 364.365 129.087 383.504C129.957 402.615 132.987 415.663 137.425 427.074C142.007 438.876 148.141 448.901 158.13 458.871C168.119 468.841 178.111 474.98 189.929 479.576C201.354 484.013 214.39 487.043 233.5 487.913C252.65 488.783 258.759 489 307.507 489C356.256 489 362.375 488.798 381.514 487.913C400.625 487.043 413.675 484.013 425.086 479.576C436.889 474.98 446.894 468.846 456.884 458.871C466.875 448.897 472.994 438.876 477.59 427.074C482.027 415.663 485.071 402.613 485.927 383.504C486.798 364.351 487 358.246 487 309.5C487 260.754 486.798 254.635 485.927 235.496C485.057 216.385 482.027 203.329 477.59 191.926C472.994 180.124 466.859 170.119 456.884 160.129C446.91 150.138 436.889 144.007 425.1 139.424C413.675 134.987 400.624 131.943 381.529 131.087C362.386 130.213 356.27 130 307.529 130C258.788 130 252.657 130.202 233.507 131.087" fill="white" />
</svg>
