<svg viewBox="0 0 113 113" fill="" xmlns="http://www.w3.org/2000/svg">
	<path d="M56.098 112.195C87.0801 112.195 112.196 87.0791 112.196 56.097C112.196 25.115 87.0801 -0.000976562 56.098 -0.000976562C25.1159 -0.000976562 0 25.115 0 56.097C0 87.0791 25.1159 112.195 56.098 112.195Z" fill="white" />
	<path d="M79.1239 22.506H33.0739C27.2439 22.506 22.5139 27.236 22.5139 33.076V79.126C22.5139 84.956 27.2439 89.686 33.0739 89.686H79.1239C84.9539 89.686 89.6839 84.956 89.6839 79.126V33.076C89.6839 27.236 84.9539 22.506 79.1239 22.506ZM71.9829 30.276L80.4229 30.256H80.4429C81.2529 30.246 81.9129 30.906 81.9129 31.706V40.176C81.9129 40.986 81.2629 41.636 80.4529 41.636L72.0229 41.666C71.2129 41.666 70.5629 41.016 70.5629 40.216L70.5329 31.746C70.5229 30.936 71.1729 30.286 71.9829 30.276ZM45.8039 50.326C46.0239 49.946 46.2539 49.566 46.5139 49.206C48.6639 46.226 52.1539 44.276 56.0939 44.276C60.0439 44.276 63.5339 46.226 65.6839 49.206C65.9439 49.566 66.1739 49.946 66.3939 50.336C67.3539 52.036 67.9239 54.006 67.9239 56.096C67.9239 62.616 62.6139 67.916 56.0939 67.916C49.5739 67.916 44.2739 62.616 44.2739 56.096C44.2729 54.006 44.8339 52.036 45.8039 50.326ZM83.1439 76.706C83.1439 80.256 80.2539 83.146 76.7039 83.146H35.4939C31.9439 83.146 29.0539 80.256 29.0539 76.706V49.206H39.0839C38.8339 49.816 38.6139 50.456 38.4339 51.096C37.9739 52.686 37.7339 54.366 37.7339 56.096C37.7339 66.226 45.9739 74.466 56.0939 74.466C66.2239 74.466 74.4639 66.226 74.4639 56.096C74.4639 54.366 74.2139 52.686 73.7639 51.096C73.5739 50.456 73.3639 49.816 73.1139 49.206H83.1439V76.706V76.706Z" fill="black" />
</svg>
