<svg width="30" height="30" viewBox="0 0 19 18" fill="none" xmlns="http://www.w3.org/2000/svg">
<g clip-path="url(#clip0)">
<path d="M9.03084 0C4.04321 0 0 3.94181 0 8.80434C0 13.6669 4.04321 17.6087 9.03084 17.6087C14.0185 17.6087 18.0617 13.6669 18.0617 8.80434C18.0617 3.94181 14.0184 0 9.03084 0ZM6.6214 13.0608H4.63858V6.8156H6.6214V13.0608ZM5.62054 5.99774C4.97297 5.99774 4.44801 5.48177 4.44801 4.84538C4.44801 4.20893 4.97305 3.693 5.62054 3.693C6.26803 3.693 6.793 4.20893 6.793 4.84538C6.79304 5.4818 6.26807 5.99774 5.62054 5.99774ZM14.052 13.0608H12.0788V9.78261C12.0788 8.88348 11.7285 8.38158 10.9992 8.38158C10.2055 8.38158 9.79092 8.90431 9.79092 9.78261V13.0608H7.88918V6.8156H9.79092V7.65673C9.79092 7.65673 10.363 6.6251 11.7213 6.6251C13.0796 6.6251 14.052 7.4337 14.052 9.10644L14.052 13.0608Z" fill="black"/>
</g>
<defs>
<clipPath id="clip0">
<rect width="18.0617" height="17.6087" fill="white"/>
</clipPath>
</defs>
</svg>
