<svg viewBox="0 0 199 199" xmlns="http://www.w3.org/2000/svg">
	<path d="M186.903 37.5491H161.584V34.828C161.584 30.5693 158.132 27.1168 153.872 27.1168H134.135V20.7165C134.135 16.4578 130.682 13.0044 126.423 13.0044H72.576C68.3167 13.0044 64.8643 16.4573 64.8643 20.7165V27.1173H45.1269C40.8677 27.1173 37.4152 30.5693 37.4152 34.8285V37.5496H12.0967C5.41568 37.5496 0 42.9657 0 49.6463V173.898C0 180.579 5.41568 185.995 12.0967 185.995H186.903C193.584 185.995 199 180.579 199 173.898V49.6458C199 42.9652 193.584 37.5491 186.903 37.5491ZM68.7344 28.7649H130.266V37.5491H68.7344V28.7649ZM181.525 66.7461L111.514 114.279C111.128 120.587 105.905 125.587 99.5 125.587C93.0957 125.587 87.8728 120.587 87.4857 114.279L17.475 66.7461C14.7114 64.8698 13.9921 61.1086 15.8684 58.3446C17.7447 55.5815 21.5059 54.8622 24.2699 56.7385L92.9943 103.4C94.8721 102.192 97.1011 101.482 99.4995 101.482C101.898 101.482 104.128 102.192 106.004 103.4L174.729 56.738C177.494 54.8617 181.255 55.582 183.131 58.3441C185.007 61.1081 184.288 64.8698 181.525 66.7461Z" />
</svg>
