<svg viewBox="0 0 376 500" xmlns="http://www.w3.org/2000/svg">
	<path d="M375.333 31.2002H0.933105V468H375.333V31.2002Z" fill="white" />
	<path d="M375.333 0H0.933105V31.2H375.333V0Z" />
	<path d="M375.333 468H0.933105V499.2H375.333V468Z" />
	<path d="M344.133 62.3999H32.1331V197.6H344.133V62.3999Z" fill="black" />
	<path d="M343.333 234.2H32.1331V244.2H343.333V234.2Z" fill="#D8D6D6" />
	<path d="M343.333 265.4H32.1331V275.4H343.333V265.4Z" fill="#D8D6D6" />
	<path d="M343.333 296.6H32.1331V306.6H343.333V296.6Z" fill="#D8D6D6" />
	<path d="M343.333 327.8H32.1331V337.8H343.333V327.8Z" fill="#D8D6D6" />
	<path d="M343.333 359H32.1331V369H343.333V359Z" fill="#D8D6D6" />
	<path d="M343.333 390.2H32.1331V400.2H343.333V390.2Z" fill="#D8D6D6" />
	<path d="M343.333 421.4H32.1331V431.4H343.333V421.4Z" fill="#D8D6D6" />
	<path d="M257.218 365.859L240.65 382.427L279.223 421L295.791 404.432L257.218 365.859Z" />
	<path d="M223.617 399.775L213 339L273.775 349.617L223.617 399.775Z" />
</svg>
